<?xml version="1.0" standalone="no"?><svg xmlns="http://www.w3.org/2000/svg" viewBox="0 0 1440 320"><path fill="#c0d7bc" fill-opacity="1" d="M0,96L30,133.3C60,171,120,245,180,250.7C240,256,300,192,360,192C420,192,480,256,540,282.7C600,309,660,299,720,282.7C780,267,840,245,900,250.7C960,256,1020,288,1080,261.3C1140,235,1200,149,1260,101.3C1320,53,1380,43,1410,37.3L1440,32L1440,320L1410,320C1380,320,1320,320,1260,320C1200,320,1140,320,1080,320C1020,320,960,320,900,320C840,320,780,320,720,320C660,320,600,320,540,320C480,320,420,320,360,320C300,320,240,320,180,320C120,320,60,320,30,320L0,320Z"></path></svg>